<svg xmlns="http://www.w3.org/2000/svg" width="45.164" height="28.539" viewBox="0 0 45.164 28.539">
  <path id="bike" d="M35.941,107.485a8.214,8.214,0,0,0-1.929.229l-3.27-7.849,2.837-.946a1.294,1.294,0,0,0-.818-2.455l-4.246,1.419a1.294,1.294,0,0,0-.7,1.692l.813,1.951-11.341,2.948-1.165-2.717h1.8a1.294,1.294,0,0,0,0-2.588H12.381a1.294,1.294,0,0,0,0,2.588h.928l1.723,4.019L12.524,108.7a8.221,8.221,0,1,0,3.82,8.3H20.7a1.294,1.294,0,0,0,1.045-.532l8.346-11.446,1.536,3.688a8.22,8.22,0,1,0,4.317-1.227ZM8.223,121.344a5.636,5.636,0,1,1,2.586-10.64l-3.568,4.163A1.294,1.294,0,0,0,8.223,117h5.484A5.644,5.644,0,0,1,8.223,121.344Zm2.813-6.929,5.132-5.987,2.566,5.987Zm9.953-1.305-2.669-6.229,8.9-2.314Zm14.951,8.235a5.633,5.633,0,0,1-3.3-10.2l2.108,5.06a1.294,1.294,0,1,0,2.389-1l-2.109-5.062a5.635,5.635,0,1,1,.915,11.2Z" transform="translate(0.5 -95.893)" fill="#fff" stroke="#0078ff" stroke-width="1"/>
</svg>
