<svg id="car" xmlns="http://www.w3.org/2000/svg" width="34.948" height="27.032" viewBox="0 0 34.948 27.032">
  <g id="Group_404" data-name="Group 404" transform="translate(0 0)">
    <g id="Group_403" data-name="Group 403" transform="translate(0 0)">
      <path id="Path_412" data-name="Path 412" d="M33.611,63.044l-.762-.806-2.673-7.206A3.136,3.136,0,0,0,27.256,53H8.162a3.125,3.125,0,0,0-2.92,2.031L2.606,62.148l-1.1,1.016A4.291,4.291,0,0,0,0,66.426v10.5a3.122,3.122,0,0,0,3.121,3.106H5.093a3.122,3.122,0,0,0,3.121-3.106V75.4H26.733v1.523a3.122,3.122,0,0,0,3.121,3.106h1.971a3.122,3.122,0,0,0,3.121-3.106V66.15A4.33,4.33,0,0,0,33.611,63.044Zm-26.965-7.5a1.615,1.615,0,0,1,1.516-1.045h19.1a1.626,1.626,0,0,1,1.516,1.045l2.33,6.273h-1.74a5.122,5.122,0,0,0-10.133,0H4.316Zm21.2,6.273h-7.1a3.627,3.627,0,0,1,7.1,0ZM6.721,76.926a1.624,1.624,0,0,1-1.628,1.613H3.121a1.624,1.624,0,0,1-1.628-1.613V74.969a3.033,3.033,0,0,0,1.628.433h3.6Zm26.733,0a1.624,1.624,0,0,1-1.628,1.613H29.855a1.629,1.629,0,0,1-1.628-1.613V75.4h3.6a3.033,3.033,0,0,0,1.628-.433Zm-1.628-3.017H3.121a1.611,1.611,0,0,1-1.628-1.6V66.426a2.8,2.8,0,0,1,.993-2.136l.03-.03,1.016-.956H31.811l.717.769c.007.015.03.022.037.037a2.814,2.814,0,0,1,.881,2.039v6.161h.007A1.616,1.616,0,0,1,31.826,73.909Z" transform="translate(0 -53)" fill="#fff"/>
    </g>
  </g>
  <g id="Group_406" data-name="Group 406" transform="translate(3.51 13.292)">
    <g id="Group_405" data-name="Group 405" transform="translate(0 0)">
      <path id="Path_413" data-name="Path 413" d="M53.347,231h-5.6a.749.749,0,0,0-.747.747v3.883a.749.749,0,0,0,.747.747h5.6a.749.749,0,0,0,.747-.747v-3.883A.749.749,0,0,0,53.347,231Zm-.747,3.883H48.493v-2.39H52.6Z" transform="translate(-47 -231)" fill="#fff"/>
    </g>
  </g>
  <g id="Group_408" data-name="Group 408" transform="translate(24.344 13.292)">
    <g id="Group_407" data-name="Group 407" transform="translate(0 0)">
      <path id="Path_414" data-name="Path 414" d="M332.347,231h-5.6a.749.749,0,0,0-.747.747v3.883a.749.749,0,0,0,.747.747h5.6a.749.749,0,0,0,.747-.747v-3.883A.749.749,0,0,0,332.347,231Zm-.747,3.883h-4.107v-2.39H331.6Z" transform="translate(-326 -231)" fill="#fff"/>
    </g>
  </g>
  <g id="Group_410" data-name="Group 410" transform="translate(13.12 16.428)">
    <g id="Group_409" data-name="Group 409" transform="translate(0 0)">
      <path id="Path_415" data-name="Path 415" d="M183.66,273h-7.214a.747.747,0,1,0,0,1.493h7.214a.747.747,0,1,0,0-1.493Z" transform="translate(-175.7 -273)" fill="#fff"/>
    </g>
  </g>
  <g id="Group_412" data-name="Group 412" transform="translate(13.12 14.113)">
    <g id="Group_411" data-name="Group 411">
      <path id="Path_416" data-name="Path 416" d="M183.66,242h-7.214a.747.747,0,0,0,0,1.493h7.214a.747.747,0,1,0,0-1.493Z" transform="translate(-175.7 -242)" fill="#fff"/>
    </g>
  </g>
</svg>
