<svg xmlns="http://www.w3.org/2000/svg" width="16.727" height="16.727" viewBox="0 0 16.727 16.727">
  <g id="instagram" transform="translate(0.9 0.9)">
    <path id="Path_132" data-name="Path 132" d="M6.732,3h7.463a3.732,3.732,0,0,1,3.732,3.732v7.463a3.732,3.732,0,0,1-3.732,3.732H6.732A3.732,3.732,0,0,1,3,14.195V6.732A3.732,3.732,0,0,1,6.732,3Z" transform="translate(-3 -3)" fill="none" stroke="#fff" stroke-linecap="round" stroke-linejoin="round" stroke-width="1.8"/>
    <path id="Path_133" data-name="Path 133" d="M18,14.482a2.985,2.985,0,1,1-2.515-2.515A2.985,2.985,0,0,1,18,14.482Z" transform="translate(-7.555 -7.489)" fill="none" stroke="#fff" stroke-linecap="round" stroke-linejoin="round" stroke-width="1.8"/>
    <path id="Path_134" data-name="Path 134" d="M26.25,9.75h0" transform="translate(-14.682 -6.392)" fill="none" stroke="#fff" stroke-linecap="round" stroke-linejoin="round" stroke-width="1.8"/>
  </g>
</svg>
