<svg id="ribbon" xmlns="http://www.w3.org/2000/svg" width="18.346" height="24.084" viewBox="0 0 18.346 24.084">
  <path id="Path_996" data-name="Path 996" d="M126.623,60a5.623,5.623,0,1,0,5.623,5.623A5.63,5.63,0,0,0,126.623,60Zm0,10A4.374,4.374,0,1,1,131,65.623,4.379,4.379,0,0,1,126.623,70Z" transform="translate(-117.45 -56.45)" fill="#222"/>
  <path id="Path_997" data-name="Path 997" d="M182.926,111.609l-1.252-.182-.56-1.135a.525.525,0,0,0-.941,0l-.56,1.135-1.252.182a.525.525,0,0,0-.291.9l.906.883-.214,1.247a.525.525,0,0,0,.761.553l1.12-.589,1.12.589a.525.525,0,0,0,.761-.553l-.214-1.247.906-.883a.525.525,0,0,0-.291-.9Zm-1.545,1.219a.525.525,0,0,0-.151.465l.081.471-.423-.222a.525.525,0,0,0-.488,0l-.423.222.081-.471a.525.525,0,0,0-.151-.465l-.342-.334.473-.069a.525.525,0,0,0,.4-.287l.211-.428.211.428a.525.525,0,0,0,.4.287l.473.069Z" transform="translate(-171.47 -103.922)" fill="#222"/>
  <path id="Path_998" data-name="Path 998" d="M78.64,10.738a2.626,2.626,0,0,0,.705-1.565,2.626,2.626,0,0,0-.705-1.565,2.319,2.319,0,0,1-.384-.6,2.386,2.386,0,0,1,.029-.751,2.552,2.552,0,0,0-.168-1.671A2.606,2.606,0,0,0,76.741,3.6a2.357,2.357,0,0,1-.652-.34,2.355,2.355,0,0,1-.34-.652,2.606,2.606,0,0,0-.988-1.377,2.553,2.553,0,0,0-1.671-.168,2.387,2.387,0,0,1-.751.029,2.32,2.32,0,0,1-.6-.384,2.088,2.088,0,0,0-3.13,0,2.319,2.319,0,0,1-.6.384,2.391,2.391,0,0,1-.751-.029,2.552,2.552,0,0,0-1.671.168A2.606,2.606,0,0,0,64.6,2.6a2.355,2.355,0,0,1-.34.652,2.355,2.355,0,0,1-.652.34,2.606,2.606,0,0,0-1.377.988,2.552,2.552,0,0,0-.168,1.671,2.387,2.387,0,0,1,.029.751,2.32,2.32,0,0,1-.384.6A2.626,2.626,0,0,0,61,9.173a2.626,2.626,0,0,0,.705,1.565,2.319,2.319,0,0,1,.384.6,2.386,2.386,0,0,1-.029.751,2.552,2.552,0,0,0,.168,1.671,2.606,2.606,0,0,0,1.377.988,2.356,2.356,0,0,1,.652.34,2.355,2.355,0,0,1,.34.652,5.487,5.487,0,0,0,.314.667l-1.558,5.814a.706.706,0,0,0,1.034.794l1.693-.978.978,1.693a.706.706,0,0,0,1.293-.17l1.412-5.269a1.6,1.6,0,0,0,.819,0l1.412,5.269a.706.706,0,0,0,1.293.17l.978-1.693,1.693.978a.706.706,0,0,0,1.034-.794l-1.558-5.815a5.488,5.488,0,0,0,.314-.667,2.355,2.355,0,0,1,.34-.652,2.355,2.355,0,0,1,.652-.34,2.606,2.606,0,0,0,1.377-.988,2.552,2.552,0,0,0,.168-1.671,2.387,2.387,0,0,1-.029-.751,2.32,2.32,0,0,1,.384-.6ZM67.429,21.551l-.479-.829a.706.706,0,0,0-.964-.258l-.829.479.972-3.629a3.714,3.714,0,0,0,1.126-.028,2.385,2.385,0,0,1,.751-.029,1.8,1.8,0,0,1,.492.3Zm6.93-1.087a.706.706,0,0,0-.964.258l-.479.829-1.07-3.994a1.8,1.8,0,0,1,.492-.3,2.392,2.392,0,0,1,.751.029,3.711,3.711,0,0,0,1.126.028l.972,3.629ZM77.521,9.878a3.229,3.229,0,0,0-.628,1.1,3.337,3.337,0,0,0-.007,1.3,1.839,1.839,0,0,1,.01.784,1.831,1.831,0,0,1-.7.391,3.287,3.287,0,0,0-1.109.646,3.286,3.286,0,0,0-.646,1.109,1.83,1.83,0,0,1-.391.7,1.84,1.84,0,0,1-.784-.01,3.336,3.336,0,0,0-1.3.007,3.231,3.231,0,0,0-1.1.628,1.81,1.81,0,0,1-.705.413,1.811,1.811,0,0,1-.705-.413,3.23,3.23,0,0,0-1.1-.628,2.2,2.2,0,0,0-.57-.069,5.651,5.651,0,0,0-.726.061,1.839,1.839,0,0,1-.784.01,1.83,1.83,0,0,1-.391-.7,3.286,3.286,0,0,0-.646-1.109,3.286,3.286,0,0,0-1.109-.646,1.83,1.83,0,0,1-.7-.391,1.84,1.84,0,0,1,.01-.784,3.336,3.336,0,0,0-.007-1.3,3.23,3.23,0,0,0-.628-1.1,1.811,1.811,0,0,1-.413-.705,1.811,1.811,0,0,1,.413-.705,3.229,3.229,0,0,0,.628-1.1,3.337,3.337,0,0,0,.007-1.3,1.839,1.839,0,0,1-.01-.784,1.831,1.831,0,0,1,.7-.391,3.287,3.287,0,0,0,1.109-.646A3.286,3.286,0,0,0,65.9,3.145a1.83,1.83,0,0,1,.391-.7,1.84,1.84,0,0,1,.784.01,3.339,3.339,0,0,0,1.3-.007,3.231,3.231,0,0,0,1.1-.628,1.81,1.81,0,0,1,.705-.413,1.811,1.811,0,0,1,.705.413,3.229,3.229,0,0,0,1.1.628,3.334,3.334,0,0,0,1.3.007,1.839,1.839,0,0,1,.784-.01,1.83,1.83,0,0,1,.391.7,3.286,3.286,0,0,0,.646,1.109A3.286,3.286,0,0,0,76.2,4.9a1.83,1.83,0,0,1,.7.391,1.84,1.84,0,0,1-.01.784,3.335,3.335,0,0,0,.007,1.3,3.229,3.229,0,0,0,.628,1.1,1.811,1.811,0,0,1,.413.705,1.811,1.811,0,0,1-.413.705Z" transform="translate(-61 0)" fill="#222"/>
</svg>
