<svg xmlns="http://www.w3.org/2000/svg" width="21.053" height="19.57" viewBox="0 0 21.053 19.57">
  <path id="star-outline" d="M22.215,10.046H15.4l-2.071-6.18a.75.75,0,0,0-1.408,0l-2.071,6.18H2.991a.743.743,0,0,0-.741.741.545.545,0,0,0,.014.125.712.712,0,0,0,.31.523l5.6,3.947L6.025,21.631a.743.743,0,0,0,.255.834.717.717,0,0,0,.417.181.908.908,0,0,0,.463-.167l5.466-3.9,5.466,3.9a.868.868,0,0,0,.463.167.665.665,0,0,0,.412-.181.734.734,0,0,0,.255-.834l-2.149-6.249L22.628,11.4l.134-.116a.777.777,0,0,0,.241-.5A.784.784,0,0,0,22.215,10.046ZM16.323,14.33a1.3,1.3,0,0,0-.472,1.473l1.394,4.063a.186.186,0,0,1-.283.213l-3.585-2.557a1.294,1.294,0,0,0-.755-.241,1.27,1.27,0,0,0-.75.241L8.286,20.075A.185.185,0,0,1,8,19.861L9.4,15.8a1.305,1.305,0,0,0-.477-1.482L5.168,11.672a.186.186,0,0,1,.107-.338H9.847a1.3,1.3,0,0,0,1.228-.885l1.371-4.086a.186.186,0,0,1,.352,0l1.371,4.086a1.3,1.3,0,0,0,1.228.885H19.9a.183.183,0,0,1,.107.334Z" transform="translate(-2.1 -3.225)" fill="#222" stroke="#222" stroke-width="0.3"/>
</svg>
