<svg xmlns="http://www.w3.org/2000/svg" width="14.269" height="13.25" viewBox="0 0 14.269 13.25">
  <path id="star" d="M15.978,7.962H11.292L9.869,3.713a.516.516,0,0,0-.968,0L7.477,7.962H2.76a.511.511,0,0,0-.51.51.375.375,0,0,0,.01.086.49.49,0,0,0,.213.36l3.851,2.714-1.478,4.3a.511.511,0,0,0,.175.573.493.493,0,0,0,.287.124.624.624,0,0,0,.319-.115l3.758-2.679,3.758,2.679a.6.6,0,0,0,.319.115.458.458,0,0,0,.283-.124.5.5,0,0,0,.175-.573l-1.478-4.3,3.819-2.739.092-.08a.487.487,0,0,0-.376-.85Zm-1.51,1.121-2.542,1.825a.9.9,0,0,0-.325,1.013l.959,2.793a.128.128,0,0,1-.194.147L9.9,13.1l0,0a1.188,1.188,0,0,1-.513-.971V5.455a.062.062,0,0,1,.121-.019h0l.943,2.809a.891.891,0,0,0,.844.608h3.1A.127.127,0,0,1,14.468,9.083Z" transform="translate(-2.25 -3.375)" fill="#ffa727"/>
</svg>
