<svg xmlns="http://www.w3.org/2000/svg" width="17.912" height="14.548" viewBox="0 0 17.912 14.548">
  <path id="twitter" d="M16.071,7.006c.011.159.011.318.011.477A10.373,10.373,0,0,1,5.637,17.929,10.374,10.374,0,0,1,0,16.281a7.594,7.594,0,0,0,.887.045,7.352,7.352,0,0,0,4.558-1.568,3.678,3.678,0,0,1-3.432-2.546,4.629,4.629,0,0,0,.693.057,3.883,3.883,0,0,0,.966-.125,3.672,3.672,0,0,1-2.944-3.6V8.5a3.7,3.7,0,0,0,1.659.466A3.677,3.677,0,0,1,1.25,4.051,10.435,10.435,0,0,0,8.82,7.893a4.144,4.144,0,0,1-.091-.841A3.675,3.675,0,0,1,15.082,4.54a7.228,7.228,0,0,0,2.33-.887A3.661,3.661,0,0,1,15.8,5.677a7.359,7.359,0,0,0,2.114-.568,7.891,7.891,0,0,1-1.841,1.9Z" transform="translate(0 -3.381)" fill="#fff"/>
</svg>
