<svg xmlns="http://www.w3.org/2000/svg" width="16.772" height="14.802" viewBox="0 0 16.772 14.802">
  <path id="work" d="M15.8,1.907H11.473V1.43A1.432,1.432,0,0,0,10.043,0H6.229A1.432,1.432,0,0,0,4.8,1.43v.477H.477A.478.478,0,0,0,0,2.384V12.872A1.432,1.432,0,0,0,1.43,14.3H14.842a1.432,1.432,0,0,0,1.43-1.43V2.392a.463.463,0,0,0-.474-.485ZM5.753,1.43A.477.477,0,0,1,6.229.953h3.814a.477.477,0,0,1,.477.477v.477H5.753Zm9.382,1.43L13.654,7.3a.476.476,0,0,1-.452.326H10.52V7.151a.477.477,0,0,0-.477-.477H6.229a.477.477,0,0,0-.477.477v.477H3.071A.476.476,0,0,1,2.619,7.3L1.138,2.86ZM9.567,7.628v.953H6.706V7.628Zm5.752,5.244a.477.477,0,0,1-.477.477H1.43a.477.477,0,0,1-.477-.477V5.321L1.714,7.6a1.428,1.428,0,0,0,1.357.978H5.753v.477a.477.477,0,0,0,.477.477h3.814a.477.477,0,0,0,.477-.477V8.581H13.2A1.428,1.428,0,0,0,14.558,7.6l.761-2.282Zm0,0" transform="translate(0.25 0.25)" fill="#0078ff" stroke="#0078ff" stroke-width="0.5"/>
</svg>
