<svg xmlns="http://www.w3.org/2000/svg" width="16.165" height="16.165" viewBox="0 0 16.165 16.165">
  <path id="gps" d="M9.583,6.643a2.939,2.939,0,1,0,2.939,2.939A2.938,2.938,0,0,0,9.583,6.643Zm6.569,2.2a6.609,6.609,0,0,0-5.834-5.834V1.5H8.848V3.014A6.609,6.609,0,0,0,3.014,8.848H1.5v1.47H3.014a6.609,6.609,0,0,0,5.834,5.834v1.514h1.47V16.152a6.609,6.609,0,0,0,5.834-5.834h1.514V8.848ZM9.583,14.726a5.143,5.143,0,1,1,5.143-5.143A5.14,5.14,0,0,1,9.583,14.726Z" transform="translate(-1.5 -1.5)" fill="#0078ff"/>
</svg>
