<svg xmlns="http://www.w3.org/2000/svg" width="50" height="50" viewBox="0 0 50 50">
  <g id="inst-r" transform="translate(-219 -344)">
    <g id="Group_962" data-name="Group 962" transform="translate(146 291)">
      <g id="Ellipse_198" data-name="Ellipse 198" transform="translate(73 53)" fill="none" stroke="#0078ff" stroke-width="1.5">
        <circle cx="25" cy="25" r="25" stroke="none"/>
        <circle cx="25" cy="25" r="24.25" fill="none"/>
      </g>
    </g>
    <g id="Icon_feather-instagram" data-name="Icon feather-instagram" transform="translate(236.964 362)">
      <path id="Path_132" data-name="Path 132" d="M6.75,3h7.5A3.75,3.75,0,0,1,18,6.75v7.5A3.75,3.75,0,0,1,14.249,18H6.75A3.75,3.75,0,0,1,3,14.249V6.75A3.75,3.75,0,0,1,6.75,3Z" transform="translate(-3 -3)" fill="none" stroke="#0078ff" stroke-linecap="round" stroke-linejoin="round" stroke-width="1.8"/>
      <path id="Path_133" data-name="Path 133" d="M18.032,14.495A3,3,0,1,1,15.5,11.967,3,3,0,0,1,18.032,14.495Z" transform="translate(-7.533 -7.468)" fill="none" stroke="#0078ff" stroke-linecap="round" stroke-linejoin="round" stroke-width="1.8"/>
      <path id="Path_134" data-name="Path 134" d="M26.25,9.75h0" transform="translate(-14.626 -6.375)" fill="none" stroke="#0078ff" stroke-linecap="round" stroke-linejoin="round" stroke-width="1.8"/>
    </g>
  </g>
</svg>
