<svg xmlns="http://www.w3.org/2000/svg" width="15.74" height="15.74" viewBox="0 0 15.74 15.74">
  <path id="language" d="M10.862,3a7.87,7.87,0,1,0,7.878,7.87A7.866,7.866,0,0,0,10.862,3Zm5.454,4.722H13.995a12.316,12.316,0,0,0-1.086-2.8A6.319,6.319,0,0,1,16.316,7.722ZM10.87,4.606a11.086,11.086,0,0,1,1.5,3.117H9.367A11.086,11.086,0,0,1,10.87,4.606ZM4.779,12.444a6.156,6.156,0,0,1,0-3.148h2.66a13,13,0,0,0-.11,1.574,13,13,0,0,0,.11,1.574Zm.645,1.574H7.746a12.316,12.316,0,0,0,1.086,2.8A6.286,6.286,0,0,1,5.424,14.018Zm2.322-6.3H5.424a6.286,6.286,0,0,1,3.408-2.8A12.316,12.316,0,0,0,7.746,7.722Zm3.124,9.413a11.086,11.086,0,0,1-1.5-3.117h3.006A11.086,11.086,0,0,1,10.87,17.135Zm1.842-4.691H9.029A11.579,11.579,0,0,1,8.9,10.87,11.479,11.479,0,0,1,9.029,9.3h3.683a11.479,11.479,0,0,1,.126,1.574A11.579,11.579,0,0,1,12.712,12.444Zm.2,4.376a12.316,12.316,0,0,0,1.086-2.8h2.322A6.319,6.319,0,0,1,12.908,16.82ZM14.3,12.444a13,13,0,0,0,.11-1.574A13,13,0,0,0,14.3,9.3h2.66a6.156,6.156,0,0,1,0,3.148Z" transform="translate(-3 -3)" fill="#0078ff"/>
</svg>
