<svg xmlns="http://www.w3.org/2000/svg" xmlns:xlink="http://www.w3.org/1999/xlink" width="74" height="143" viewBox="0 0 74 143">
  <defs>
    <clipPath id="clip-path">
      <rect id="Rectangle_1" data-name="Rectangle 1" width="74" height="143" transform="translate(0 -0.255)" fill="#fff" stroke="#707070" stroke-width="1"/>
    </clipPath>
  </defs>
  <g id="smt-cr-left" transform="translate(0 0.255)" clip-path="url(#clip-path)">
    <g id="Path_1" data-name="Path 1" transform="matrix(-1, -0.017, 0.017, -1, 63.705, 131.48)" fill="none">
      <path d="M62.434,124.868A62.434,62.434,0,1,0,0,62.434,62.434,62.434,0,0,0,62.434,124.868Z" stroke="none"/>
      <path d="M 62.43381500244141 94.86763000488281 C 80.31786346435547 94.86763000488281 94.86763000488281 80.31786346435547 94.86763000488281 62.43381500244141 C 94.86763000488281 44.54977035522461 80.31786346435547 29.99999618530273 62.43381500244141 29.99999618530273 C 44.54977035522461 29.99999618530273 29.99999618530273 44.54977035522461 29.99999618530273 62.43381500244141 C 29.99999618530273 80.31786346435547 44.54977035522461 94.86763000488281 62.43381500244141 94.86763000488281 M 62.43381500244141 124.8676300048828 C 27.95258712768555 124.8676300048828 -3.17937679028546e-06 96.9150390625 -3.17937679028546e-06 62.43381500244141 C -3.17937679028546e-06 27.95258712768555 27.95258712768555 -3.17937679028546e-06 62.43381500244141 -3.17937679028546e-06 C 96.9150390625 -3.17937679028546e-06 124.8676300048828 27.95258712768555 124.8676300048828 62.43381500244141 C 124.8676300048828 96.9150390625 96.9150390625 124.8676300048828 62.43381500244141 124.8676300048828 Z" stroke="none" fill="#0078ff"/>
    </g>
  </g>
</svg>
