<svg xmlns="http://www.w3.org/2000/svg" width="37.432" height="42.009" viewBox="0 0 37.432 42.009">
  <path id="endless" d="M64.088,32.726H48.145V29.2H64.091a1.231,1.231,0,0,0,.982-1.972L48.145,4.795V1.231A1.231,1.231,0,0,0,46.914,0c-2.231,0-4.43,1.158-6.535,3.443a29.511,29.511,0,0,0-4.81,7.62c-2.561,5.551-4.349,12.482-4.349,16.854a1.231,1.231,0,0,0,1.231,1.231H45.683v3.578H29.12a1.231,1.231,0,0,0-.942,2.023l5.741,6.821a1.231,1.231,0,0,0,.942.438H58.347a1.231,1.231,0,0,0,.942-.438l5.741-6.822a1.231,1.231,0,0,0-.942-2.023ZM48.145,26.735V8.88L61.62,26.735H48.145ZM37.8,12.094c2.439-5.287,5.248-8.627,7.879-9.439V26.687H33.727A46.507,46.507,0,0,1,37.8,12.094Zm19.97,27.453H35.434l-3.67-4.36h29.68Z" transform="translate(-27.889)" fill="#fff"/>
</svg>
