<svg xmlns="http://www.w3.org/2000/svg" width="40.906" height="52.137" viewBox="0 0 40.906 52.137">
  <g id="reward-ribbon" transform="translate(-568.304 -286.432)">
    <path id="Union_2" data-name="Union 2" d="M9181.671,23317.127a1.376,1.376,0,0,1-1.153-1.012l-2.765-10.312a3.231,3.231,0,0,1-.8.1,3.277,3.277,0,0,1-.8-.1l-2.76,10.314a1.385,1.385,0,0,1-1.159,1.012c-.059.006-.117.012-.176.012a1.385,1.385,0,0,1-1.2-.689l-1.914-3.318-3.312,1.914a1.379,1.379,0,0,1-2.024-1.551l3.049-11.379a10.558,10.558,0,0,1-.615-1.309,4.587,4.587,0,0,0-.667-1.275,4.684,4.684,0,0,0-1.275-.668,5.083,5.083,0,0,1-2.692-1.93,4.988,4.988,0,0,1-.327-3.271,4.584,4.584,0,0,0,.053-1.469,4.375,4.375,0,0,0-.749-1.176,4.089,4.089,0,0,1,0-6.127,4.411,4.411,0,0,0,.749-1.178,4.585,4.585,0,0,0-.053-1.469,4.981,4.981,0,0,1,.327-3.27,5.087,5.087,0,0,1,2.692-1.932,4.684,4.684,0,0,0,1.275-.668,4.587,4.587,0,0,0,.667-1.275,5.153,5.153,0,0,1,1.932-2.7,5.019,5.019,0,0,1,3.271-.328,2.4,2.4,0,0,0,2.651-.7,4.09,4.09,0,0,1,6.121,0,4.665,4.665,0,0,0,1.176.754,1.533,1.533,0,0,0,.292.039l.112,0a8.456,8.456,0,0,0,1.064-.1c.226-.029.457-.059.692-.082.177-.016.356-.029.536-.035l.181,0c.039,0,.078,0,.117,0a3.865,3.865,0,0,1,1.26.219,3.2,3.2,0,0,1,.485.227,5.133,5.133,0,0,1,1.938,2.7,4.436,4.436,0,0,0,.667,1.275,4.684,4.684,0,0,0,1.275.668,5.1,5.1,0,0,1,2.691,1.932,3.6,3.6,0,0,1,.449,1.852,11.039,11.039,0,0,1-.121,1.418,9.149,9.149,0,0,0-.1,1.094,1.515,1.515,0,0,0,.039.375,4.586,4.586,0,0,0,.755,1.178,4.089,4.089,0,0,1,0,6.127,4.548,4.548,0,0,0-.755,1.176,1.521,1.521,0,0,0-.039.377,9.154,9.154,0,0,0,.1,1.092,11.069,11.069,0,0,1,.121,1.418,3.6,3.6,0,0,1-.449,1.854,5.1,5.1,0,0,1-2.691,1.93,4.825,4.825,0,0,0-1.281.668,4.6,4.6,0,0,0-.661,1.275,11.124,11.124,0,0,1-.616,1.3l3.05,11.383a1.386,1.386,0,0,1-.5,1.451,1.371,1.371,0,0,1-1.527.1l-3.318-1.908-1.913,3.313a1.369,1.369,0,0,1-1.194.689C9181.794,23317.139,9181.735,23317.133,9181.671,23317.127Z" transform="translate(-8588.197 -22981.07)" fill="#0059bc" stroke="#fff" stroke-width="5"/>
    <g id="_3069070" data-name="3069070" transform="translate(509.803 288.932)">
      <g id="Group_947" data-name="Group 947" transform="translate(61 0)">
        <g id="Group_945" data-name="Group 945" transform="translate(4.559 30.482)">
          <path id="Path_987" data-name="Path 987" d="M264.049,347.737a1.381,1.381,0,0,1-1.334-1.024l-3.2-11.936a1.381,1.381,0,0,1,.967-1.689l7.1-1.958a1.381,1.381,0,0,1,1.7.974l3.212,11.988a1.381,1.381,0,0,1-2.024,1.553l-3.314-1.914-1.914,3.314a1.381,1.381,0,0,1-1.2.69Z" transform="translate(-245.755 -331.08)" fill="#0059bc"/>
          <path id="Path_988" data-name="Path 988" d="M119.01,347.738a1.381,1.381,0,0,1-1.2-.691l-1.914-3.314-3.314,1.914a1.381,1.381,0,0,1-2.024-1.553l3.212-11.988a1.381,1.381,0,0,1,1.7-.974l7.1,1.958a1.381,1.381,0,0,1,.967,1.689l-3.2,11.936a1.381,1.381,0,0,1-1.334,1.024Z" transform="translate(-110.515 -331.081)" fill="#0078ff"/>
        </g>
        <path id="Path_989" data-name="Path 989" d="M78.953,35.906a5.14,5.14,0,0,1-3.063-1.381,4.542,4.542,0,0,0-1.177-.752,4.667,4.667,0,0,0-1.47.057,5,5,0,0,1-3.271-.328,5.1,5.1,0,0,1-1.933-2.695,4.609,4.609,0,0,0-.666-1.276,4.607,4.607,0,0,0-1.276-.666A5.1,5.1,0,0,1,63.4,26.933a5,5,0,0,1-.328-3.271,4.675,4.675,0,0,0,.057-1.47,4.54,4.54,0,0,0-.752-1.177A5.14,5.14,0,0,1,61,17.953a5.14,5.14,0,0,1,1.381-3.063,4.538,4.538,0,0,0,.752-1.177,4.672,4.672,0,0,0-.057-1.47A5,5,0,0,1,63.4,8.973,5.1,5.1,0,0,1,66.1,7.04a4.614,4.614,0,0,0,1.276-.666A4.612,4.612,0,0,0,68.041,5.1,5.1,5.1,0,0,1,69.974,2.4a4.993,4.993,0,0,1,3.271-.328,4.681,4.681,0,0,0,1.47.057,4.539,4.539,0,0,0,1.176-.752A5.138,5.138,0,0,1,78.953,0a5.14,5.14,0,0,1,3.063,1.381,4.543,4.543,0,0,0,1.177.752,4.673,4.673,0,0,0,1.47-.057,5,5,0,0,1,3.271.328A5.1,5.1,0,0,1,89.866,5.1a4.609,4.609,0,0,0,.666,1.276,4.607,4.607,0,0,0,1.276.666A5.1,5.1,0,0,1,94.5,8.974a5,5,0,0,1,.328,3.271,4.675,4.675,0,0,0-.057,1.47,4.538,4.538,0,0,0,.752,1.177,5.14,5.14,0,0,1,1.38,3.063,5.14,5.14,0,0,1-1.381,3.063,4.542,4.542,0,0,0-.752,1.177,4.672,4.672,0,0,0,.057,1.47,5,5,0,0,1-.328,3.271,5.1,5.1,0,0,1-2.695,1.933,4.616,4.616,0,0,0-1.276.666,4.612,4.612,0,0,0-.666,1.276A5.1,5.1,0,0,1,87.932,33.5a4.994,4.994,0,0,1-3.271.328,4.68,4.68,0,0,0-1.47-.057,4.539,4.539,0,0,0-1.176.752A5.138,5.138,0,0,1,78.953,35.906Z" transform="translate(-61 0)" fill="#0078ff"/>
        <path id="Path_990" data-name="Path 990" d="M259.063,34.526a4.539,4.539,0,0,1,1.176-.752,4.681,4.681,0,0,1,1.47.057,4.994,4.994,0,0,0,3.271-.328,5.1,5.1,0,0,0,1.933-2.695,4.61,4.61,0,0,1,.666-1.276,4.609,4.609,0,0,1,1.276-.666,5.1,5.1,0,0,0,2.695-1.933,5,5,0,0,0,.328-3.271,4.672,4.672,0,0,1-.057-1.47,4.539,4.539,0,0,1,.752-1.177,5.141,5.141,0,0,0,1.38-3.063,5.139,5.139,0,0,0-1.381-3.063,4.539,4.539,0,0,1-.752-1.177,4.67,4.67,0,0,1,.057-1.47,5,5,0,0,0-.328-3.271,5.1,5.1,0,0,0-2.695-1.933,4.611,4.611,0,0,1-1.276-.666,4.609,4.609,0,0,1-.666-1.276A5.1,5.1,0,0,0,264.98,2.4a5,5,0,0,0-3.271-.328,4.672,4.672,0,0,1-1.47.057,4.539,4.539,0,0,1-1.177-.752A5.139,5.139,0,0,0,256,0V35.906a5.14,5.14,0,0,0,3.063-1.381Z" transform="translate(-238.047 0)" fill="#0059bc"/>
        <circle id="Ellipse_195" data-name="Ellipse 195" cx="11" cy="11" r="11" transform="translate(7.197 7.069)" fill="#ffb454"/>
        <path id="Path_991" data-name="Path 991" d="M267.048,86.048A11.048,11.048,0,0,0,256,75V97.1A11.048,11.048,0,0,0,267.048,86.048Z" transform="translate(-238.047 -68.095)" fill="#ff8659"/>
        <path id="Path_992" data-name="Path 992" d="M133.429,84.858a12.429,12.429,0,1,1,12.429-12.429A12.443,12.443,0,0,1,133.429,84.858Zm0-22.1a9.667,9.667,0,1,0,9.667,9.667A9.678,9.678,0,0,0,133.429,62.762Z" transform="translate(-115.476 -54.476)" fill="#ffe196"/>
        <path id="Path_993" data-name="Path 993" d="M265.667,72.429A9.678,9.678,0,0,1,256,82.1v2.762A12.429,12.429,0,0,0,256,60v2.762A9.678,9.678,0,0,1,265.667,72.429Z" transform="translate(-238.047 -54.476)" fill="#ffb454"/>
        <g id="Group_946" data-name="Group 946" transform="translate(10.764 10.127)">
          <path id="Path_994" data-name="Path 994" d="M188.691,123.809a1.379,1.379,0,0,1-.642-.159L185.1,122.1l-2.947,1.549a1.381,1.381,0,0,1-2-1.456l.563-3.282-2.384-2.324a1.381,1.381,0,0,1,.765-2.356l3.295-.479,1.474-2.986a1.381,1.381,0,0,1,2.477,0l1.474,2.986,3.295.479a1.381,1.381,0,0,1,.765,2.356l-2.384,2.324.563,3.282a1.381,1.381,0,0,1-1.361,1.614Z" transform="translate(-177.912 -109.999)" fill="#ffe196"/>
        </g>
      </g>
      <g id="Group_948" data-name="Group 948" transform="translate(78.953 10.127)">
        <path id="Path_995" data-name="Path 995" d="M258.947,123.651a1.381,1.381,0,0,0,2-1.456l-.563-3.282,2.384-2.324a1.381,1.381,0,0,0-.765-2.356l-3.295-.479-1.474-2.986A1.381,1.381,0,0,0,256,110v12.1Z" transform="translate(-256 -110)" fill="#ffb454"/>
      </g>
    </g>
  </g>
</svg>
