<svg xmlns="http://www.w3.org/2000/svg" width="25.01" height="23.223" viewBox="0 0 25.01 23.223">
  <path id="star-gr" d="M26.311,11.414H18.1L15.6,3.967a.9.9,0,0,0-1.7,0l-2.5,7.447H3.143a.9.9,0,0,0-.893.893.656.656,0,0,0,.017.151.858.858,0,0,0,.374.631L9.39,17.845,6.8,25.376a.9.9,0,0,0,.307,1,.864.864,0,0,0,.5.218,1.094,1.094,0,0,0,.558-.2L14.755,21.7,21.342,26.4a1.046,1.046,0,0,0,.558.2.8.8,0,0,0,.5-.218.885.885,0,0,0,.307-1l-2.59-7.531,6.693-4.8.162-.14a.937.937,0,0,0,.29-.6A.945.945,0,0,0,26.311,11.414Z" transform="translate(-2.25 -3.375)" fill="#76808f"/>
</svg>
