<svg xmlns="http://www.w3.org/2000/svg" width="24.801" height="20.181" viewBox="0 0 24.801 20.181">
  <path id="twitter2" d="M26.214,6.891a10.287,10.287,0,0,1-2.922.8,5.106,5.106,0,0,0,2.239-2.817A10.11,10.11,0,0,1,22.3,6.113a5.087,5.087,0,0,0-8.8,3.479,4.981,4.981,0,0,0,.131,1.161A14.42,14.42,0,0,1,3.137,5.43a5.1,5.1,0,0,0,1.582,6.8,4.97,4.97,0,0,1-2.312-.636v.063A5.093,5.093,0,0,0,6.49,16.651a5.122,5.122,0,0,1-1.34.179,4.8,4.8,0,0,1-.956-.095A5.1,5.1,0,0,0,8.95,20.272a10.2,10.2,0,0,1-6.322,2.181,10.314,10.314,0,0,1-1.214-.074,14.222,14.222,0,0,0,7.789,2.3A14.391,14.391,0,0,0,23.691,10.186c0-.221-.005-.441-.016-.657A10.358,10.358,0,0,0,26.214,6.891Z" transform="translate(-1.413 -4.5)" fill="#55acee"/>
</svg>
