<svg xmlns="http://www.w3.org/2000/svg" width="15.583" height="21.366" viewBox="0 0 15.583 21.366">
  <g id="automatic" transform="translate(-66.585)">
    <path id="Path_462" data-name="Path 462" d="M217.2.651A.652.652,0,0,0,216.545,0h-3.118a.652.652,0,0,0-.651.651v.707H217.2Z" transform="translate(-139.841)" fill="#0078ff"/>
    <path id="Path_463" data-name="Path 463" d="M212.775,181.782a.652.652,0,0,0,.651.651h3.118a.652.652,0,0,0,.651-.651v-13.4h-4.421Zm1.559-11.532a.651.651,0,0,1,1.3,0V180.3a.651.651,0,1,1-1.3,0Z" transform="translate(-139.841 -161.068)" fill="#0078ff"/>
    <path id="Path_464" data-name="Path 464" d="M389.5,77.12h-.825v1.972h.825a.771.771,0,0,0,.77-.771v-.43A.771.771,0,0,0,389.5,77.12Z" transform="translate(-308.103 -73.771)" fill="#0078ff"/>
    <path id="Path_465" data-name="Path 465" d="M169.336,64.619h4.13V61.27h-4.13a.651.651,0,0,0-.651.651v2.046A.651.651,0,0,0,169.336,64.619Z" transform="translate(-97.666 -58.609)" fill="#0078ff"/>
    <path id="Path_466" data-name="Path 466" d="M310.649,61.27h-1.854v3.349h1.854a.312.312,0,0,0,.312-.311V61.581A.312.312,0,0,0,310.649,61.27Z" transform="translate(-231.692 -58.609)" fill="#0078ff"/>
    <path id="Path_467" data-name="Path 467" d="M68.365,54.167H67.171a.586.586,0,0,0-.586.586v2.866a.586.586,0,0,0,1.173,0v-.56h.607a1.446,1.446,0,0,0,0-2.892Zm0,1.72h-.607V55.34h.607a.274.274,0,0,1,0,.547Z" transform="translate(0 -51.815)" fill="#0078ff"/>
    <path id="Path_468" data-name="Path 468" d="M69.224,269.677a.586.586,0,0,0-.586.586V271.3l-.99-1.383a.587.587,0,0,0-1.063.341v2.866a.586.586,0,0,0,1.173,0v-1.041l.99,1.382a.587.587,0,0,0,1.063-.341v-2.866A.586.586,0,0,0,69.224,269.677Z" transform="translate(0 -257.966)" fill="#0078ff"/>
    <path id="Path_469" data-name="Path 469" d="M68.348,377.434H67.171a.586.586,0,0,0-.586.586v2.866a.586.586,0,0,0,.586.586h1.177a1.464,1.464,0,0,0,1.462-1.462V378.9A1.464,1.464,0,0,0,68.348,377.434Zm.29,2.576a.29.29,0,0,1-.29.29h-.591v-1.694h.591a.29.29,0,0,1,.29.29Z" transform="translate(0 -361.043)" fill="#0078ff"/>
    <path id="Path_470" data-name="Path 470" d="M68.365,161.922H67.171a.586.586,0,0,0-.586.586v2.866a.586.586,0,0,0,1.173,0v-.56h.178l.852.951a.586.586,0,0,0,.874-.782l-.419-.467a1.445,1.445,0,0,0-.878-2.594Zm0,1.72h-.607v-.547h.607a.274.274,0,0,1,0,.547Z" transform="translate(0 -154.89)" fill="#0078ff"/>
    <path id="Path_471" data-name="Path 471" d="M161.067,204.52h.413a.5.5,0,1,0,0-1h-.413a.5.5,0,1,0,0,1Z" transform="translate(-89.902 -194.683)" fill="#0078ff"/>
    <path id="Path_472" data-name="Path 472" d="M161.48,307.166a.5.5,0,1,0,0-1h-.413a.5.5,0,1,0,0,1Z" transform="translate(-89.902 -292.871)" fill="#0078ff"/>
    <path id="Path_473" data-name="Path 473" d="M164.892,411.1h-.413a.5.5,0,1,0,0,1h.413a.5.5,0,1,0,0-1Z" transform="translate(-93.165 -393.243)" fill="#0078ff"/>
  </g>
</svg>
