<svg id="facebook" xmlns="http://www.w3.org/2000/svg" width="22.025" height="22.026" viewBox="0 0 22.025 22.026">
  <path id="Path_494" data-name="Path 494" d="M20.81,22.026a1.216,1.216,0,0,0,1.216-1.216V1.216A1.216,1.216,0,0,0,20.81,0H1.216A1.215,1.215,0,0,0,0,1.216V20.81a1.216,1.216,0,0,0,1.216,1.216H20.81" fill="#395185"/>
  <path id="Path_495" data-name="Path 495" d="M109.679,57.364V48.834h2.863l.429-3.324h-3.292V43.388c0-.962.267-1.618,1.647-1.618h1.76V38.8a23.53,23.53,0,0,0-2.565-.131c-2.538,0-4.275,1.549-4.275,4.394V45.51h-2.87v3.324h2.87v8.529h3.433" transform="translate(-94.482 -35.338)" fill="#fff"/>
</svg>
