<svg xmlns="http://www.w3.org/2000/svg" width="19.945" height="12.184" viewBox="0 0 19.945 12.184">
  <path id="usb" d="M19.945,10.316a.261.261,0,0,1-.14.233l-2.77,1.663a.275.275,0,0,1-.14.044.29.29,0,0,1-.14-.034.279.279,0,0,1-.14-.243V10.873H9.193C9.98,12.1,10.453,14.2,11.357,14.2h.83v-.833a.273.273,0,0,1,.277-.277h2.77a.273.273,0,0,1,.277.277v2.77a.273.273,0,0,1-.277.277h-2.77a.273.273,0,0,1-.277-.277V15.3h-.83c-2.344,0-2.521-4.43-3.877-4.43H4.362a2.218,2.218,0,1,1,0-1.11c1.216,0,1.365.3,2.319-1.878,1.247-2.77,1.806-2.553,3.386-2.553a1.663,1.663,0,1,1,0,1.113H9.141c-.9,0-1.377,2.1-2.164,3.324h9.641V8.662a.279.279,0,0,1,.14-.243.261.261,0,0,1,.277.009l2.77,1.663a.237.237,0,0,1,.14.224Z" transform="translate(0 -4.226)" fill="#0078ff"/>
</svg>
