<svg xmlns="http://www.w3.org/2000/svg" width="30.754" height="34.444" viewBox="0 0 30.754 34.444">
  <path id="boat" d="M57.311,26.6H44.352V23.73H57.313a1,1,0,0,0,.8-1.6L44.352,3.9V1a1,1,0,0,0-1-1c-1.813,0-3.6.942-5.311,2.8a23.986,23.986,0,0,0-3.909,6.193C32.05,13.5,30.6,19.137,30.6,22.691a1,1,0,0,0,1,1H42.352V26.6H28.889a1,1,0,0,0-.765,1.644l4.666,5.544a1,1,0,0,0,.765.356H52.645a1,1,0,0,0,.765-.356l4.666-5.544a1,1,0,0,0-.765-1.645ZM44.352,21.73V7.218L55.3,21.73H44.352Zm-8.4-11.9c1.983-4.3,4.266-7.012,6.4-7.672V21.69H32.634A37.8,37.8,0,0,1,35.948,9.83ZM52.179,32.143H34.021L31.039,28.6H55.162Z" transform="translate(-27.724 0.15)" fill="#fff" stroke="#0078ff" stroke-width="0.3"/>
</svg>
