<svg xmlns="http://www.w3.org/2000/svg" width="21.012" height="21.012" viewBox="0 0 21.012 21.012">
  <g id="checkmark" transform="translate(-3.125 -3.125)">
    <path id="Path_1001" data-name="Path 1001" d="M21,13.158l-.868-.892a.187.187,0,0,0-.138-.059h0a.179.179,0,0,0-.138.059l-6.015,6.06-2.189-2.189a.191.191,0,0,0-.276,0l-.878.878a.2.2,0,0,0,0,.281l2.761,2.761a.873.873,0,0,0,.577.281.915.915,0,0,0,.572-.271h0L21,13.439A.211.211,0,0,0,21,13.158Z" transform="translate(-2.109 -2.638)" fill="#0078ff" stroke="#0078ff" stroke-width="0.5"/>
    <path id="Path_1002" data-name="Path 1002" d="M13.631,4.756a8.872,8.872,0,1,1-6.277,2.6,8.817,8.817,0,0,1,6.277-2.6m0-1.381A10.256,10.256,0,1,0,23.887,13.631,10.254,10.254,0,0,0,13.631,3.375Z" fill="#0078ff" stroke="#0078ff" stroke-width="0.5"/>
  </g>
</svg>
