<svg xmlns="http://www.w3.org/2000/svg" xmlns:xlink="http://www.w3.org/1999/xlink" width="26.268" height="19.976" viewBox="0 0 26.268 19.976">
  <defs>
    <linearGradient id="linear-gradient" y1="0.5" x2="1" y2="0.5" gradientUnits="objectBoundingBox">
      <stop offset="0" stop-opacity="0.102"/>
      <stop offset="1" stop-opacity="0.2"/>
    </linearGradient>
  </defs>
  <g id="gmail" transform="translate(-0.215)">
    <path id="Path_485" data-name="Path 485" d="M24.838,20.768H1.888A1.644,1.644,0,0,1,.249,19.128V2.548A1.644,1.644,0,0,1,1.888.909h22.95a1.644,1.644,0,0,1,1.639,1.639v16.58a1.629,1.629,0,0,1-1.639,1.639Z" transform="translate(-0.03 -0.815)" fill="#e3e3e3"/>
    <path id="Path_486" data-name="Path 486" d="M29.818,57.86l9.812-7.892.07-.422L29.584,42.264,29.56,57.509Z" transform="translate(-26.321 -37.908)" fill="#231f20" opacity="0.1"/>
    <path id="Path_487" data-name="Path 487" d="M1.888,25.455A1.629,1.629,0,0,1,.249,23.816V7.212c0-.913.726-1.077,1.639-1.077s1.639.187,1.639,1.077V25.455Z" transform="translate(-0.03 -5.503)" fill="#d54b3d"/>
    <path id="Path_488" data-name="Path 488" d="M1.888,6.369c1.171,0,1.405.351,1.405.843V25.221H1.888A1.409,1.409,0,0,1,.483,23.816V7.212c0-.515.234-.843,1.405-.843Zm0-.234c-.913,0-1.639.187-1.639,1.077v16.6a1.629,1.629,0,0,0,1.639,1.639H3.527V7.212c0-.913-.726-1.077-1.639-1.077Z" transform="translate(-0.03 -5.503)" fill="#d72b27"/>
    <path id="Path_489" data-name="Path 489" d="M224.567,25.455h-1.639V7.165c0-.913.726-1.03,1.639-1.03s1.639.117,1.639,1.03V23.839a1.624,1.624,0,0,1-1.639,1.616Z" transform="translate(-199.759 -5.503)" fill="#d54b3d"/>
    <path id="Path_490" data-name="Path 490" d="M224.567,6.369c1.054,0,1.405.211,1.405.8V23.839a1.409,1.409,0,0,1-1.405,1.405h-1.405V7.165c0-.609.351-.8,1.405-.8Zm0-.234c-.913,0-1.639.117-1.639,1.03V25.479h1.639a1.629,1.629,0,0,0,1.639-1.639V7.165c0-.913-.726-1.03-1.639-1.03Z" transform="translate(-199.759 -5.503)" fill="#d72b27"/>
    <path id="Path_491" data-name="Path 491" d="M19.006,36.779,1.58,19.218l.917.373,12.131,8.735L27.671,18.76v16.4a1.624,1.624,0,0,1-1.639,1.616Z" transform="translate(-1.224 -16.827)" fill="url(#linear-gradient)"/>
    <path id="Path_492" data-name="Path 492" d="M13.358,12.158.97,3.165A1.655,1.655,0,0,1,.572.87,1.7,1.7,0,0,1,2.914.519L13.382,8.13,23.92.425A1.629,1.629,0,0,1,26.215.8,1.629,1.629,0,0,1,25.84,3.1L13.358,12.158Z" transform="translate(-0.049 -0.098)" fill="#d54b3d"/>
    <path id="Path_493" data-name="Path 493" d="M24.808.234h0A1.431,1.431,0,0,1,25.955.82a1.438,1.438,0,0,1-.3,1.967L13.31,11.779,1.062,2.88A1.43,1.43,0,0,1,.71.913,1.475,1.475,0,0,1,1.881.328a1.354,1.354,0,0,1,.843.281L13.169,8.2l.14.094.14-.094L23.965.492a1.551,1.551,0,0,1,.843-.258Zm0-.234a1.612,1.612,0,0,0-.96.3L13.31,8.009,2.842.4a1.633,1.633,0,0,0-.984-.3A1.686,1.686,0,0,0,.5.773,1.682,1.682,0,0,0,.921,3.068L13.31,12.084,25.768,3A1.668,1.668,0,0,0,26.143.7,1.6,1.6,0,0,0,24.808,0Z" transform="translate(0 0)" fill="#d72b27"/>
  </g>
</svg>
