<svg xmlns="http://www.w3.org/2000/svg" width="13.094" height="17.459" viewBox="0 0 13.094 17.459">
  <g id="heated-seats" transform="translate(-64)">
    <g id="Group_612" data-name="Group 612" transform="translate(64)">
      <g id="Group_611" data-name="Group 611">
        <path id="Path_457" data-name="Path 457" d="M69.092,157.667a3.889,3.889,0,0,1,.337-1.684,4.473,4.473,0,0,0,.38-1.59h.374a.364.364,0,0,0,.257-.621l-.727-.727a.364.364,0,0,0-.514,0l-.727.727a.364.364,0,0,0,.257.621h.345a3.946,3.946,0,0,1-.319,1.32,5.332,5.332,0,0,0-.274.825l-.167.018-.637-5.544a1.439,1.439,0,0,0-.127-.425,1.825,1.825,0,0,0-1.319-1.235,1.667,1.667,0,0,0-.838,0,1.815,1.815,0,0,0-1.386,1.738.459.459,0,0,0-.007.074,17.711,17.711,0,0,0,.529,4.293l.676,2.706a2.7,2.7,0,0,0,2.621,2.046h1.134a3.978,3.978,0,0,1,.133,1.091.364.364,0,1,0,.727,0,4.547,4.547,0,0,0-.39-1.954A3.889,3.889,0,0,1,69.092,157.667Z" transform="translate(-64 -144.209)" fill="#0078ff"/>
        <path id="Path_458" data-name="Path 458" d="M236.486,260.729a3.889,3.889,0,0,1,.337-1.684,4.473,4.473,0,0,0,.38-1.59h.374a.364.364,0,0,0,.257-.621l-.727-.727a.364.364,0,0,0-.514,0l-.727.727a.364.364,0,0,0,.257.621h.345a3.945,3.945,0,0,1-.319,1.32,6.415,6.415,0,0,0-.217.606l-.833.068a.363.363,0,0,0-.323.276,4.137,4.137,0,0,0-.107,1,3.865,3.865,0,0,0,.338,1.683,6.275,6.275,0,0,1,.215.6.364.364,0,0,0,.35.262h.784a3.978,3.978,0,0,1,.133,1.091.364.364,0,0,0,.727,0,4.547,4.547,0,0,0-.39-1.954A3.889,3.889,0,0,1,236.486,260.729Z" transform="translate(-228.847 -247.271)" fill="#0078ff"/>
        <path id="Path_459" data-name="Path 459" d="M311.151,260.729a3.889,3.889,0,0,1,.337-1.684,4.473,4.473,0,0,0,.38-1.59h.374a.364.364,0,0,0,.257-.621l-.727-.727a.364.364,0,0,0-.514,0l-.727.727a.364.364,0,0,0,.257.621h.345a3.946,3.946,0,0,1-.319,1.32c-.051.127-.1.255-.15.393l-.838.068a.365.365,0,0,0-.317.251,4.392,4.392,0,0,0,.161,2.924,6.264,6.264,0,0,1,.215.6.364.364,0,0,0,.35.262h.622c.053,0,.1-.009.158-.012a3.958,3.958,0,0,1,.136,1.1.364.364,0,1,0,.727,0,4.546,4.546,0,0,0-.39-1.954A3.89,3.89,0,0,1,311.151,260.729Z" transform="translate(-300.966 -247.271)" fill="#0078ff"/>
        <path id="Path_460" data-name="Path 460" d="M385.708,345.068a1.523,1.523,0,0,0-1.133-.413.364.364,0,0,0-.32.234,3.8,3.8,0,0,0-.255,1.468,3.869,3.869,0,0,0,.338,1.684l.031.076a.362.362,0,0,0,.237.21.358.358,0,0,0,.1.013.364.364,0,0,0,.215-.07,3.273,3.273,0,0,0,1.185-1.619,1.515,1.515,0,0,0-.4-1.584Z" transform="translate(-373.088 -332.9)" fill="#0078ff"/>
        <path id="Path_461" data-name="Path 461" d="M73.272,4.365A1.567,1.567,0,0,0,74.8,3.108l.248-1.239A1.563,1.563,0,0,0,73.519,0h-.247a1.565,1.565,0,0,0-1.564,1.563V2.8A1.565,1.565,0,0,0,73.272,4.365Z" transform="translate(-71.445 0)" fill="#0078ff"/>
      </g>
    </g>
  </g>
</svg>
