<svg xmlns="http://www.w3.org/2000/svg" width="16.604" height="19.776" viewBox="0 0 16.604 19.776">
  <g id="Identity" transform="translate(-16.973 0.196)">
    <path id="Path_999" data-name="Path 999" d="M33.417,5c-.01-.525-.019-1.02-.019-1.5a.68.68,0,0,0-.68-.68A9.377,9.377,0,0,1,25.749.193a.68.68,0,0,0-.948,0,9.375,9.375,0,0,1-6.968,2.631.68.68,0,0,0-.68.68c0,.48-.009.975-.019,1.5-.093,4.882-.221,11.568,7.919,14.389a.679.679,0,0,0,.445,0C33.638,16.571,33.51,9.885,33.417,5ZM25.275,18.028c-6.981-2.536-6.876-8.091-6.782-13,.006-.295.011-.58.015-.86A10.487,10.487,0,0,0,25.275,1.6,10.489,10.489,0,0,0,32.042,4.17c0,.28.009.565.015.859C32.151,9.937,32.256,15.492,25.275,18.028Z" transform="translate(0 0)" fill="#222" stroke="#000" stroke-width="0.3"/>
    <path id="Path_1000" data-name="Path 1000" d="M74.353,79.085l-3.282,3.282-1.4-1.4a.68.68,0,0,0-.962.962L70.59,83.81a.68.68,0,0,0,.962,0l3.763-3.763a.68.68,0,0,0-.962-.962Z" transform="translate(-46.737 -71.732)" fill="#222" stroke="#000" stroke-width="0.3"/>
  </g>
</svg>
