<svg id="rvs" xmlns="http://www.w3.org/2000/svg" width="34.41" height="28.425" viewBox="0 0 34.41 28.425">
  <g id="Group_413" data-name="Group 413" transform="translate(0 0)">
    <path id="Path_417" data-name="Path 417" d="M34.41,38.732v-1.5A5.242,5.242,0,0,0,29.173,32H5.236A5.242,5.242,0,0,0,0,37.236v18.7a1.5,1.5,0,0,0,1.5,1.5H4.564a3.74,3.74,0,0,0,7.329,0H22.517a3.74,3.74,0,0,0,7.329,0h3.068a1.5,1.5,0,0,0,1.5-1.5V50.7a3.744,3.744,0,0,0-3.74-3.74H28.425v-3.74a5.222,5.222,0,0,0-1.575-3.74h6.811A.748.748,0,0,0,34.41,38.732ZM8.228,58.929a2.244,2.244,0,1,1,2.244-2.244A2.247,2.247,0,0,1,8.228,58.929Zm2.244-5.217a3.7,3.7,0,0,0-2.244-.767,3.747,3.747,0,0,0-3.665,2.992H1.5v-7.48h8.976Zm5.984,2.225H11.969V43.969h4.488Zm9.724,2.992a2.244,2.244,0,1,1,2.244-2.244A2.247,2.247,0,0,1,26.181,58.929Zm6.732-20.945H23.189a.748.748,0,0,0,0,1.5,3.744,3.744,0,0,1,3.74,3.74v3.74H21.693a.748.748,0,1,0,0,1.5h8.976A2.247,2.247,0,0,1,32.914,50.7v5.236H29.846a3.74,3.74,0,0,0-7.329,0H17.953V43.221a.748.748,0,0,0-.748-.748H11.221a.748.748,0,0,0-.748.748v3.74H1.5V39.48H17.2a.748.748,0,1,0,0-1.5H1.5v-.748a3.744,3.744,0,0,1,3.74-3.74H29.173a3.744,3.744,0,0,1,3.74,3.74Z" transform="translate(0 -32)" fill="#fff"/>
  </g>
</svg>
