<svg xmlns="http://www.w3.org/2000/svg" width="50" height="50" viewBox="0 0 50 50">
  <g id="tw-r" transform="translate(-219 -344)">
    <g id="Group_962" data-name="Group 962" transform="translate(146 291)">
      <g id="Ellipse_198" data-name="Ellipse 198" transform="translate(73 53)" fill="none" stroke="#0078ff" stroke-width="1.5">
        <circle cx="25" cy="25" r="25" stroke="none"/>
        <circle cx="25" cy="25" r="24.25" fill="none"/>
      </g>
    </g>
    <path id="Icon_awesome-twitter" data-name="Icon awesome-twitter" d="M16.558,7.116c.012.164.012.328.012.492A10.688,10.688,0,0,1,5.808,18.37,10.689,10.689,0,0,1,0,16.672a7.825,7.825,0,0,0,.913.047,7.575,7.575,0,0,0,4.7-1.616,3.789,3.789,0,0,1-3.536-2.623,4.77,4.77,0,0,0,.714.059,4,4,0,0,0,1-.129A3.783,3.783,0,0,1,.749,8.7V8.65a3.809,3.809,0,0,0,1.71.48A3.788,3.788,0,0,1,1.288,4.072a10.751,10.751,0,0,0,7.8,3.958,4.27,4.27,0,0,1-.094-.867,3.786,3.786,0,0,1,6.546-2.588,7.447,7.447,0,0,0,2.4-.913,3.772,3.772,0,0,1-1.663,2.084,7.582,7.582,0,0,0,2.178-.585,8.131,8.131,0,0,1-1.9,1.956Z" transform="translate(234.729 358.619)" fill="#0078ff"/>
  </g>
</svg>
