<svg id="wheel-drive" xmlns="http://www.w3.org/2000/svg" width="15.078" height="15.078" viewBox="0 0 15.078 15.078">
  <g id="steering_x5F_wheel">
    <path id="Path_456" data-name="Path 456" d="M7.539,0a7.539,7.539,0,1,0,7.539,7.539A7.539,7.539,0,0,0,7.539,0Zm0,1.885a5.649,5.649,0,0,1,5.308,3.769H2.231A5.649,5.649,0,0,1,7.539,1.885Zm0,6.6a.942.942,0,1,1,.942-.942A.942.942,0,0,1,7.539,8.481ZM1.885,7.539c2.575,0,4.66,2.481,4.7,5.558A5.653,5.653,0,0,1,1.885,7.539Zm6.6,5.558c.044-3.077,2.129-5.558,4.7-5.558A5.653,5.653,0,0,1,8.489,13.1Z" fill="#0078ff"/>
  </g>
</svg>
